<svg xmlns="http://www.w3.org/2000/svg" width="514" height="442" viewBox="0 0 514 442" version="1.1">
	<path d="M 199.200 49.200 C 197.537 50.863, 197.701 55.040, 199.608 59.605 C 202.317 66.088, 199.372 75.187, 188.695 93.325 L 183.500 102.150 179.500 101.685 C 177.300 101.429, 172.471 100.630, 168.769 99.910 C 155.941 97.414, 152.865 101.582, 159.408 112.592 C 161.339 115.841, 163.611 121.425, 164.456 125 C 166.418 133.298, 167.350 152.176, 166.308 162.500 L 165.500 170.500 152.500 172.294 C 144.128 173.449, 131.645 174.189, 117.436 174.370 C 105.301 174.525, 94.838 174.982, 94.186 175.385 C 91.862 176.821, 93.069 179.790, 97.750 184.155 C 107.301 193.059, 118.250 199, 125.110 199 C 126.809 199, 132.542 197.256, 137.849 195.124 C 147.134 191.394, 161.759 187.426, 162.711 188.378 C 163.507 189.174, 158.927 206.139, 155.513 215.045 C 149.186 231.544, 139.938 246.822, 128.016 260.470 C 121.768 267.622, 119.949 271.349, 121.800 273.200 C 124.286 275.686, 134.575 269.688, 147.202 258.391 C 167.404 240.316, 176.733 223.728, 183.339 194.137 C 184.815 187.525, 186.233 183.449, 187.257 182.876 C 188.588 182.131, 231.591 172, 233.421 172 C 235.080 172, 232.890 219.469, 231.075 222.860 C 229.467 225.864, 226.860 226.243, 219.521 224.541 C 202.763 220.655, 202.051 223.136, 215.839 237.354 C 221.906 243.610, 225.960 248.650, 226.413 250.500 C 227.330 254.240, 230.744 258, 233.224 258 C 237.942 258, 247.126 249.882, 250.760 242.500 C 255.546 232.776, 255.895 227.302, 255.164 173.500 C 254.708 139.981, 257.059 122.998, 263.548 112.926 C 265.447 109.979, 267 106.586, 267 105.387 C 267 102.245, 260.942 97.360, 251.321 92.743 C 241.021 87.801, 237.828 87.757, 227.993 92.422 C 221.291 95.602, 210.662 98.764, 201.128 100.415 C 198.066 100.945, 197.882 100.845, 199.128 99.324 C 202.810 94.830, 224.516 76.210, 232.321 70.850 C 237.173 67.519, 241.386 64.159, 241.683 63.384 C 242.537 61.158, 240 58.890, 233.200 55.799 C 220.172 49.876, 202.042 46.358, 199.200 49.200 M 341.500 70.184 C 340.400 70.802, 337.554 73.078, 335.176 75.243 C 329.994 79.958, 324.257 82.632, 315.301 84.506 C 309.171 85.789, 308.071 85.739, 301.260 83.871 C 293.606 81.771, 284.368 81.037, 282.228 82.359 C 280.131 83.655, 280.866 88.864, 284.199 96.332 C 287.092 102.814, 287.394 104.410, 287.345 113 C 287.254 128.804, 281.086 142.587, 267.886 156.484 C 264.099 160.470, 261 164.243, 261 164.866 C 261 167.330, 267.310 165.755, 277.159 160.831 C 298.777 150.024, 306.327 137.838, 310.348 107.262 L 311.500 98.500 320 96.754 C 324.675 95.794, 329.582 95.258, 330.905 95.562 L 333.310 96.116 332.651 113.581 C 331.869 134.320, 332.222 135.627, 340.408 142.295 C 347.219 147.844, 350.375 148.479, 367.364 147.718 C 396.711 146.404, 409.854 136.445, 394.284 127.320 C 388.704 124.050, 381.378 123.705, 365.629 125.970 C 356.215 127.323, 355.694 127.302, 354.379 125.503 C 353.550 124.370, 353 121.087, 353 117.276 C 353 108.786, 355.860 103.365, 364.904 94.710 C 369.812 90.013, 372 87.185, 372 85.538 C 372 82.477, 366.031 77.315, 357.012 72.576 C 350.007 68.895, 345.134 68.143, 341.500 70.184 M 207.283 111.916 C 196.713 113.393, 187.880 114.804, 187.653 115.051 C 187.427 115.298, 187.525 121.575, 187.871 129 C 188.217 136.425, 188.275 148.013, 188 154.752 C 187.511 166.746, 187.545 167.004, 189.631 167.002 C 190.804 167.001, 201.095 165.650, 212.500 164 C 223.905 162.350, 233.432 161, 233.669 161 C 233.907 161, 233.966 150.215, 233.801 137.034 C 233.481 111.585, 233.351 110.916, 228.500 109.723 C 227.400 109.453, 217.852 110.440, 207.283 111.916 M 199.498 125.378 C 197.699 126.694, 197.638 127.198, 198.774 131.444 C 200.873 139.292, 206.203 151.005, 209.072 154.077 C 213.513 158.831, 221.419 157.230, 223.975 151.061 C 225.401 147.618, 224.637 140.133, 222.423 135.851 C 218.911 129.059, 203.864 122.185, 199.498 125.378 M 329.500 157.993 C 319.825 163.552, 311.802 165.834, 296.115 167.487 C 280.532 169.129, 278.091 170.327, 282.327 174.252 C 285.650 177.332, 296.049 180.519, 302.500 180.435 C 305.250 180.399, 310.200 179.347, 313.500 178.097 C 320.301 175.520, 333.327 174.102, 334.390 175.822 C 334.761 176.422, 334.360 178.619, 333.501 180.706 C 331.725 185.016, 323.873 197, 322.825 197 C 322.445 197, 317.716 194.730, 312.317 191.954 C 299.319 185.274, 290.346 182.564, 284.009 183.404 C 274.468 184.670, 270.398 187.364, 273.103 190.624 C 273.728 191.377, 277.069 192.868, 280.527 193.936 C 288.693 196.458, 306.539 205.662, 310.892 209.596 C 312.335 210.900, 290.114 225.517, 273.847 233.964 C 266.344 237.861, 259.670 241.693, 259.016 242.481 C 255.760 246.404, 262.908 247.090, 275.500 244.063 C 294.661 239.457, 313.628 231.423, 323.156 223.876 C 327.992 220.046, 326.029 219.143, 349.050 235.801 C 358.703 242.785, 368.828 249.610, 371.550 250.967 C 379.186 254.772, 392.177 254.940, 412 251.488 C 439.004 246.786, 451 243.070, 451 239.408 C 451 236.515, 445.980 234.897, 430.873 232.918 C 399.026 228.747, 368.946 220.946, 348.721 211.614 L 340.942 208.024 352.108 195.512 C 358.249 188.630, 363.599 183, 363.998 183 C 364.396 183, 366.810 181.056, 369.361 178.680 C 375.367 173.087, 375.481 170.423, 369.917 165.661 C 363.932 160.538, 349.864 154.710, 342.500 154.303 C 337.024 154, 335.889 154.322, 329.500 157.993 M 200.072 183.928 C 197.733 186.267, 197.916 188.166, 201.621 200 C 205.548 212.544, 209.560 217.080, 215.424 215.608 C 218.721 214.781, 223.013 208.320, 223.708 203.138 C 224.458 197.551, 221.537 193.242, 213.223 187.669 C 204.597 181.887, 202.663 181.337, 200.072 183.928 M 316.916 249.009 C 313.845 249.492, 305.970 251.236, 299.416 252.886 C 276.447 258.667, 230.523 265.915, 203.392 268.040 C 186.381 269.373, 181 270.448, 181 272.515 C 181 277.064, 193.242 280, 212.210 280 C 223.873 280, 227 280.282, 227 281.334 C 227 283.299, 219.502 293.785, 214.186 299.256 L 209.564 304.011 203.501 303.390 C 198.598 302.887, 197.179 303.080, 196.088 304.394 C 194.807 305.938, 194.948 311.242, 196.371 315 C 197.576 318.184, 160.590 344.086, 130.688 361 C 114.245 370.301, 107 375.217, 107 377.073 C 107 378.787, 116.704 378.020, 126.141 375.561 C 152.868 368.596, 178.697 356.353, 197.998 341.502 C 201.228 339.016, 204.121 337.386, 204.426 337.880 C 205.599 339.777, 207.929 353.080, 209.439 366.500 C 211.609 385.786, 212.568 389.459, 216.238 392.547 C 222.312 397.658, 228.208 393.186, 229.550 382.450 L 230.230 377 233.865 376.995 C 235.864 376.992, 261.001 375.877, 289.725 374.518 C 345.389 371.885, 347.876 371.560, 350.125 366.626 C 351.796 362.957, 350.460 359.406, 345.351 353.944 L 340.784 349.061 343.829 345.215 C 348.466 339.362, 355.149 333.532, 362.976 328.515 C 366.877 326.015, 370.589 322.801, 371.249 321.353 C 372.371 318.891, 372.145 318.455, 367.655 314.389 C 362.025 309.292, 347.872 300.549, 340.025 297.321 C 332.798 294.347, 327.166 294.422, 316.362 297.636 C 311.488 299.086, 304.575 301.129, 301 302.176 C 286.998 306.277, 246.647 311.705, 236.620 310.836 L 232.739 310.500 240.567 304.665 C 244.873 301.455, 250.894 297.567, 253.948 296.024 C 263.870 291.011, 265.092 287.522, 259.154 281.165 L 256.287 278.096 258.894 277.609 C 260.327 277.341, 264.650 276.842, 268.500 276.501 C 293.200 274.310, 334.548 268.259, 340.669 265.940 C 344.654 264.430, 348 261.034, 348 258.500 C 348 251.643, 331.745 246.680, 316.916 249.009 M 298.500 319.058 C 286.094 320.703, 258.965 323.091, 244.285 323.830 C 235.917 324.252, 228.805 324.862, 228.479 325.187 C 228.154 325.512, 228.588 331.791, 229.443 339.139 C 230.298 346.488, 230.998 354.777, 230.999 357.561 L 231 362.622 244.750 361.323 C 274.517 358.513, 297.279 354.738, 307.482 350.921 C 312.349 349.100, 313.172 348.348, 315.495 343.600 C 316.919 340.690, 318.851 334.598, 319.789 330.063 L 321.494 321.818 319.136 319.909 C 316.561 317.824, 309.879 317.549, 298.500 319.058" stroke="none" fill="black" fill-rule="evenodd"/>
</svg>